# xmcd
#
# Track frame offsets:
#       150
#       27922
#       47070
#       98727
#       116550
#       138782
#       157597
#       201543
#       227873
#       250538
#
# Disc length: 4247 seconds
#
# Revision: 2
# Processed by: cddbd v1.4PL0 Copyright (c) Steve Scherf et al.
# Submitted via: WhereIsIt 3.26
#
DISCID=7810950a
DTITLE=Stevie Ray Vaughan  - Blues At Sunrise (2000)
DYEAR=1900
DGENRE=
TTITLE0=Ain't Gone `N' Give Up On Love
TTITLE1=Leave My Girl Alone
TTITLE2=Tin Pan Alley
TTITLE3=Chitlins Con Carne
TTITLE4=The Things (That) I Used To Do
TTITLE5=The Sky Is Crying
TTITLE6=Texas Flood
TTITLE7=May I Have a Talk With You
TTITLE8=Dirty Pool
TTITLE9=Blues at Sunrise
EXTD=
EXTT0=
EXTT1=
EXTT2=
EXTT3=
EXTT4=
EXTT5=
EXTT6=
EXTT7=
EXTT8=
EXTT9=
PLAYORDER=
